<svg width="29" height="29" viewBox="0 0 29 29" fill="none" xmlns="http://www.w3.org/2000/svg">
<path d="M24.1667 13.2917H8.25292L11.7329 9.81167C11.9588 9.58574 12.0858 9.27931 12.0858 8.95979C12.0858 8.64028 11.9588 8.33385 11.7329 8.10792C11.507 7.88199 11.2006 7.75506 10.881 7.75506C10.5615 7.75506 10.2551 7.88199 10.0292 8.10792L4.48292 13.6542C4.3709 13.766 4.28203 13.8987 4.22139 14.0449C4.16076 14.1911 4.12955 14.3478 4.12955 14.506C4.12955 14.6643 4.16076 14.821 4.22139 14.9672C4.28203 15.1133 4.3709 15.2461 4.48292 15.3579L10.0292 20.9042C10.141 21.016 10.2738 21.1048 10.42 21.1653C10.5662 21.2259 10.7228 21.257 10.881 21.257C11.0393 21.257 11.1959 21.2259 11.3421 21.1653C11.4882 21.1048 11.621 21.016 11.7329 20.9042C11.8448 20.7923 11.9335 20.6595 11.9941 20.5133C12.0546 20.3672 12.0858 20.2105 12.0858 20.0523C12.0858 19.8941 12.0546 19.7374 11.9941 19.5913C11.9335 19.4451 11.8448 19.3123 11.7329 19.2004L8.25292 15.7083H24.1667C24.8313 15.7083 25.375 15.1646 25.375 14.5C25.375 13.8354 24.8313 13.2917 24.1667 13.2917Z" fill="white"/>
</svg>
