<svg width="35" height="35" viewBox="0 0 35 35" fill="none" xmlns="http://www.w3.org/2000/svg">
<path d="M27.5654 5.83333H7.43465C7.00996 5.83333 6.60266 6.03343 6.30236 6.3896C6.00205 6.74578 5.83334 7.22885 5.83334 7.73256V27.2674C5.83334 27.7711 6.00205 28.2542 6.30236 28.6104C6.60266 28.9666 7.00996 29.1667 7.43465 29.1667H27.5654C27.9901 29.1667 28.3974 28.9666 28.6977 28.6104C28.998 28.2542 29.1667 27.7711 29.1667 27.2674V7.73256C29.1667 7.22885 28.998 6.74578 28.6977 6.3896C28.3974 6.03343 27.9901 5.83333 27.5654 5.83333ZM27.7941 27.2674C27.7941 27.3394 27.77 27.4084 27.7271 27.4593C27.6842 27.5102 27.626 27.5388 27.5654 27.5388H7.43465C7.37398 27.5388 7.31579 27.5102 7.27289 27.4593C7.22999 27.4084 7.20589 27.3394 7.20589 27.2674V7.73256C7.20589 7.6606 7.22999 7.59159 7.27289 7.54071C7.31579 7.48982 7.37398 7.46124 7.43465 7.46124H27.5654C27.626 7.46124 27.6842 7.48982 27.7271 7.54071C27.77 7.59159 27.7941 7.6606 27.7941 7.73256V27.2674ZM22.7614 12.0736C22.7614 13.7287 22.2071 15.3159 21.2204 16.4862C20.2337 17.6565 18.8954 18.3139 17.5 18.3139C16.1046 18.3139 14.7663 17.6565 13.7796 16.4862C12.7929 15.3159 12.2386 13.7287 12.2386 12.0736C12.2386 11.8578 12.3109 11.6507 12.4396 11.4981C12.5683 11.3454 12.7428 11.2597 12.9248 11.2597C13.1069 11.2597 13.2814 11.3454 13.4101 11.4981C13.5388 11.6507 13.6111 11.8578 13.6111 12.0736C13.6111 13.2969 14.0208 14.4701 14.7501 15.3351C15.4795 16.2001 16.4686 16.686 17.5 16.686C18.5314 16.686 19.5206 16.2001 20.2499 15.3351C20.9792 14.4701 21.3889 13.2969 21.3889 12.0736C21.3889 11.8578 21.4612 11.6507 21.5899 11.4981C21.7186 11.3454 21.8932 11.2597 22.0752 11.2597C22.2572 11.2597 22.4317 11.3454 22.5604 11.4981C22.6891 11.6507 22.7614 11.8578 22.7614 12.0736Z" fill="black"/>
</svg>
