<svg width="35" height="35" viewBox="0 0 35 35" fill="none" xmlns="http://www.w3.org/2000/svg">
<path d="M6.01562 20.2344C7.22375 20.2344 8.20312 19.255 8.20312 18.0469C8.20312 16.8388 7.22375 15.8594 6.01562 15.8594C4.8075 15.8594 3.82812 16.8388 3.82812 18.0469C3.82812 19.255 4.8075 20.2344 6.01562 20.2344Z" stroke="black" stroke-width="2" stroke-linecap="round" stroke-linejoin="round"/>
<path d="M18.0469 20.2344C19.255 20.2344 20.2344 19.255 20.2344 18.0469C20.2344 16.8388 19.255 15.8594 18.0469 15.8594C16.8388 15.8594 15.8594 16.8388 15.8594 18.0469C15.8594 19.255 16.8388 20.2344 18.0469 20.2344Z" stroke="black" stroke-width="2" stroke-linecap="round" stroke-linejoin="round"/>
<path d="M30.0781 20.2344C31.2862 20.2344 32.2656 19.255 32.2656 18.0469C32.2656 16.8388 31.2862 15.8594 30.0781 15.8594C28.87 15.8594 27.8906 16.8388 27.8906 18.0469C27.8906 19.255 28.87 20.2344 30.0781 20.2344Z" stroke="black" stroke-width="2" stroke-linecap="round" stroke-linejoin="round"/>
</svg>
