<svg width="30" height="30" viewBox="0 0 30 30" fill="none" xmlns="http://www.w3.org/2000/svg">
<path d="M24.6189 6.6852H24.6171C24.6131 6.55885 24.5607 6.43887 24.4707 6.35013C24.3806 6.26138 24.2599 6.21067 24.1335 6.2085V6.2076H23.1255L23.1252 24.3288L23.1255 24.3318C23.1255 24.6018 22.9092 24.8199 22.6404 24.825V24.8265L7.3686 24.8259C7.25194 24.8257 7.13912 24.7841 7.05019 24.7086C6.96127 24.6331 6.90199 24.5285 6.8829 24.4134V23.3328H21.1044V23.3319C21.1077 23.3319 21.1107 23.3328 21.1137 23.3328C21.3867 23.3328 21.6075 23.1123 21.6075 22.839L21.6069 22.8354L21.6075 4.1748C21.6075 3.9018 21.3867 3.6807 21.1137 3.681L21.1047 3.6819V3.6807H19.3779V14.1663C19.3781 14.2137 19.3639 14.2601 19.3373 14.2993C19.3106 14.3385 19.2727 14.3687 19.2285 14.3859C19.1843 14.4031 19.136 14.4065 19.0898 14.3957C19.0436 14.3849 19.0018 14.3603 18.9699 14.3253L17.2698 12.6252H17.2641C17.2452 12.6027 17.2217 12.5846 17.1951 12.5722C17.1685 12.5597 17.1396 12.5531 17.1102 12.5529C17.0809 12.5531 17.0519 12.5597 17.0253 12.5722C16.9988 12.5846 16.9752 12.6027 16.9563 12.6252H16.9506L15.2379 14.3379H15.2352C15.2019 14.3696 15.1601 14.3908 15.1148 14.3989C15.0696 14.4069 15.0229 14.4015 14.9808 14.3832C14.9386 14.3649 14.9027 14.3346 14.8777 14.2961C14.8526 14.2576 14.8394 14.2126 14.8398 14.1666V3.681H5.8749C5.6019 3.681 5.3811 3.9018 5.3811 4.1748C5.3811 4.1811 5.3829 4.1874 5.3829 4.1937V25.8069C5.3826 25.8129 5.3811 25.8186 5.3811 25.8246C5.3811 25.8306 5.3826 25.8363 5.3829 25.8423V25.8651H5.3853C5.39503 25.9884 5.4508 26.1034 5.54152 26.1874C5.63225 26.2714 5.75127 26.3182 5.8749 26.3184V26.3187L24.1248 26.3193H24.1335V26.3184C24.2629 26.3164 24.3863 26.2635 24.477 26.1713C24.5678 26.0791 24.6186 25.9549 24.6186 25.8255L24.6183 25.8225L24.6189 6.6852V6.6852Z" fill="white"/>
</svg>
