<svg width="20" height="20" viewBox="0 0 20 20" fill="none" xmlns="http://www.w3.org/2000/svg">
<path d="M3.33334 9.16667H14.3083L11.9083 6.76667C11.7525 6.61085 11.665 6.39952 11.665 6.17917C11.665 5.95881 11.7525 5.74748 11.9083 5.59167C12.0641 5.43585 12.2755 5.34832 12.4958 5.34832C12.7162 5.34832 12.9275 5.43585 13.0833 5.59167L16.9083 9.41667C16.9856 9.49376 17.0469 9.58534 17.0887 9.68615C17.1305 9.78696 17.152 9.89503 17.152 10.0042C17.152 10.1133 17.1305 10.2214 17.0887 10.3222C17.0469 10.423 16.9856 10.5146 16.9083 10.5917L13.0833 14.4167C13.0062 14.4938 12.9146 14.555 12.8138 14.5968C12.713 14.6385 12.6049 14.66 12.4958 14.66C12.3867 14.66 12.2787 14.6385 12.1779 14.5968C12.0771 14.555 11.9855 14.4938 11.9083 14.4167C11.8312 14.3395 11.77 14.2479 11.7282 14.1471C11.6865 14.0463 11.665 13.9383 11.665 13.8292C11.665 13.7201 11.6865 13.612 11.7282 13.5112C11.77 13.4104 11.8312 13.3188 11.9083 13.2417L14.3083 10.8333H3.33334C2.875 10.8333 2.5 10.4583 2.5 10C2.5 9.54167 2.875 9.16667 3.33334 9.16667Z" fill="black"/>
</svg>
