<svg width="30" height="30" viewBox="0 0 30 30" fill="none" xmlns="http://www.w3.org/2000/svg">
<path d="M15 2.5C8.1075 2.5 2.5 8.1075 2.5 15C2.5 21.8925 8.1075 27.5 15 27.5C21.8925 27.5 27.5 21.8925 27.5 15C27.5 8.1075 21.8925 2.5 15 2.5ZM16.25 22.5H13.75V20H16.25V22.5ZM17.47 16.3937C17.225 16.5912 16.9887 16.78 16.8012 16.9675C16.2912 17.4763 16.2513 17.9387 16.25 17.9587V18.125H13.75V17.9163C13.75 17.7688 13.7863 16.445 15.0325 15.1988C15.2763 14.955 15.5787 14.7075 15.8963 14.45C16.8138 13.7063 17.4162 13.1637 17.4162 12.4162C17.4017 11.7848 17.1406 11.1841 16.6888 10.7426C16.237 10.3012 15.6304 10.0542 14.9988 10.0543C14.3671 10.0545 13.7606 10.3019 13.3091 10.7435C12.8575 11.1852 12.5967 11.786 12.5825 12.4175H10.0825C10.0825 9.70625 12.2888 7.5 15 7.5C17.7112 7.5 19.9175 9.70625 19.9175 12.4175C19.9175 14.4138 18.4437 15.605 17.47 16.3937V16.3937Z" fill="black"/>
</svg>
