<svg width="29" height="29" viewBox="0 0 29 29" fill="none" xmlns="http://www.w3.org/2000/svg">
<path d="M13.1406 14.5C13.1406 14.8605 13.2838 15.2063 13.5388 15.4612C13.7937 15.7162 14.1395 15.8594 14.5 15.8594C14.8605 15.8594 15.2063 15.7162 15.4612 15.4612C15.7161 15.2063 15.8594 14.8605 15.8594 14.5C15.8594 14.1395 15.7161 13.7937 15.4612 13.5388C15.2063 13.2838 14.8605 13.1406 14.5 13.1406C14.1395 13.1406 13.7937 13.2838 13.5388 13.5388C13.2838 13.7937 13.1406 14.1395 13.1406 14.5V14.5ZM18.8047 14.5C18.8047 14.8605 18.9479 15.2063 19.2028 15.4612C19.4578 15.7162 19.8035 15.8594 20.1641 15.8594C20.5246 15.8594 20.8703 15.7162 21.1253 15.4612C21.3802 15.2063 21.5234 14.8605 21.5234 14.5C21.5234 14.1395 21.3802 13.7937 21.1253 13.5388C20.8703 13.2838 20.5246 13.1406 20.1641 13.1406C19.8035 13.1406 19.4578 13.2838 19.2028 13.5388C18.9479 13.7937 18.8047 14.1395 18.8047 14.5ZM7.47656 14.5C7.47656 14.8605 7.61978 15.2063 7.87471 15.4612C8.12964 15.7162 8.4754 15.8594 8.83593 15.8594C9.19646 15.8594 9.54222 15.7162 9.79715 15.4612C10.0521 15.2063 10.1953 14.8605 10.1953 14.5C10.1953 14.1395 10.0521 13.7937 9.79715 13.5388C9.54222 13.2838 9.19646 13.1406 8.83593 13.1406C8.4754 13.1406 8.12964 13.2838 7.87471 13.5388C7.61978 13.7937 7.47656 14.1395 7.47656 14.5V14.5ZM26.2019 9.58359C25.5619 8.06279 24.6443 6.69775 23.4747 5.52529C22.3133 4.35962 20.9345 3.43305 19.4164 2.79805C17.8588 2.14385 16.2049 1.8125 14.5 1.8125H14.4434C12.7271 1.821 11.0647 2.16084 9.50146 2.8292C7.9964 3.47071 6.63052 4.39893 5.47997 5.56211C4.32167 6.73174 3.41259 8.09111 2.78388 9.60625C2.13251 11.1752 1.804 12.8433 1.81249 14.5595C1.8221 16.5262 2.2874 18.464 3.17187 20.2207V24.5254C3.17187 24.8709 3.30912 25.2023 3.55343 25.4466C3.79774 25.6909 4.1291 25.8281 4.4746 25.8281H8.78212C10.5388 26.7126 12.4766 27.1779 14.4434 27.1875H14.5028C16.1992 27.1875 17.8446 26.859 19.3937 26.2161C20.9041 25.5887 22.2778 24.6729 23.4379 23.52C24.6075 22.3617 25.5279 21.008 26.1708 19.4985C26.8392 17.9353 27.179 16.2729 27.1875 14.5566C27.196 12.8319 26.8618 11.1582 26.2019 9.58359V9.58359ZM21.9227 21.9879C19.9375 23.9533 17.3037 25.0352 14.5 25.0352H14.4518C12.7441 25.0267 11.0477 24.6019 9.5496 23.8032L9.31171 23.6758H5.32421V19.6883L5.19677 19.4504C4.39814 17.9522 3.97333 16.2559 3.96484 14.5481C3.95351 11.7246 5.03251 9.07383 7.0121 7.07725C8.98886 5.08066 11.6311 3.97617 14.4547 3.96484H14.5028C15.9188 3.96484 17.2924 4.23955 18.5866 4.7833C19.8497 5.31289 20.9825 6.07471 21.9567 7.04893C22.9281 8.02031 23.6928 9.15596 24.2224 10.419C24.7718 11.7274 25.0465 13.1151 25.0408 14.5481C25.0238 17.3688 23.9165 20.0111 21.9227 21.9879V21.9879Z" fill="black"/>
</svg>
