<svg width="30" height="30" viewBox="0 0 30 30" fill="none" xmlns="http://www.w3.org/2000/svg">
<path d="M23.3175 21.9937L26.9794 25.6538C27.1501 25.8306 27.2446 26.0674 27.2425 26.3132C27.2404 26.559 27.1418 26.7941 26.968 26.968C26.7941 27.1418 26.559 27.2404 26.3132 27.2425C26.0674 27.2446 25.8306 27.1501 25.6538 26.9794L21.9919 23.3175C19.5989 25.3677 16.5049 26.4114 13.359 26.2295C10.2132 26.0477 7.26 24.6545 5.11922 22.3422C2.97844 20.0299 1.81646 16.9783 1.87711 13.8278C1.93775 10.6773 3.21631 7.67266 5.44449 5.44449C7.67266 3.21631 10.6773 1.93775 13.8278 1.87711C16.9783 1.81646 20.0299 2.97844 22.3422 5.11922C24.6545 7.26 26.0477 10.2132 26.2295 13.359C26.4114 16.5049 25.3677 19.5989 23.3175 21.9919V21.9937ZM14.0625 24.375C16.7975 24.375 19.4206 23.2885 21.3545 21.3545C23.2885 19.4206 24.375 16.7975 24.375 14.0625C24.375 11.3275 23.2885 8.70443 21.3545 6.77046C19.4206 4.83649 16.7975 3.75 14.0625 3.75C11.3275 3.75 8.70443 4.83649 6.77046 6.77046C4.83649 8.70443 3.75 11.3275 3.75 14.0625C3.75 16.7975 4.83649 19.4206 6.77046 21.3545C8.70443 23.2885 11.3275 24.375 14.0625 24.375V24.375Z" fill="black"/>
</svg>
