<svg width="29" height="29" viewBox="0 0 29 29" fill="none" xmlns="http://www.w3.org/2000/svg">
<path d="M4.83333 13.2917H20.7471L17.2671 9.81167C17.0412 9.58574 16.9142 9.27931 16.9142 8.95979C16.9142 8.64028 17.0412 8.33385 17.2671 8.10792C17.493 7.88199 17.7994 7.75506 18.119 7.75506C18.4385 7.75506 18.7449 7.88199 18.9708 8.10792L24.5171 13.6542C24.6291 13.766 24.718 13.8987 24.7786 14.0449C24.8392 14.1911 24.8705 14.3478 24.8705 14.506C24.8705 14.6643 24.8392 14.821 24.7786 14.9672C24.718 15.1133 24.6291 15.2461 24.5171 15.3579L18.9708 20.9042C18.859 21.016 18.7262 21.1048 18.58 21.1653C18.4338 21.2259 18.2772 21.257 18.119 21.257C17.9607 21.257 17.8041 21.2259 17.6579 21.1653C17.5118 21.1048 17.379 21.016 17.2671 20.9042C17.1552 20.7923 17.0665 20.6595 17.0059 20.5133C16.9454 20.3672 16.9142 20.2105 16.9142 20.0523C16.9142 19.8941 16.9454 19.7374 17.0059 19.5913C17.0665 19.4451 17.1552 19.3123 17.2671 19.2004L20.7471 15.7083H4.83333C4.16875 15.7083 3.625 15.1646 3.625 14.5C3.625 13.8354 4.16875 13.2917 4.83333 13.2917Z" fill="white"/>
</svg>
